<?xml version="1.0" encoding="UTF-8"?>
<svg id="Layer_2" data-name="Layer 2" xmlns="http://www.w3.org/2000/svg" viewBox="0 0 226.79 499.67">
  <defs>
    <style>
      .cls-1 {
        stroke: #000;
        stroke-miterlimit: 10;
      }
    </style>
  </defs>
  <g id="Layer_1-2" data-name="Layer 1">
    <g>
      <path class="cls-1" d="m71.62,54.93h72.19s113.31,278.5,74.31,443.5l-54.25-82.5s8.62-140.69-92.25-361Z"/>
      <polygon class="cls-1" points="71.62 54.93 .62 377.93 52.62 377.93 124.82 54.93 71.62 54.93"/>
      <polygon class="cls-1" points="67.12 271.43 172.91 271.43 172.91 241.82 63.12 241.43 67.12 271.43"/>
      <g>
        <path class="cls-1" d="m72.68,48.93h69.19s3.52-36.14,10.23-45.67c.06-.09-.05-.2-.13-.13-3.76,3.08-9.48,7.43-27.72,28.18l-9.43-16.98h-15.1l-9.43,16.98s-15.04-19.37-27.24-28.42c-.21-.16-.5.06-.41.31,1.91,5.36,10.04,35.66,10.04,45.72Z"/>
        <circle class="cls-1" cx="107.28" cy="5.53" r="5.03"/>
      </g>
    </g>
  </g>
</svg>