<?xml version="1.0" encoding="UTF-8"?>
<svg id="Layer_2" data-name="Layer 2" xmlns="http://www.w3.org/2000/svg" viewBox="0 0 249.17 497.93">
  <defs>
    <style>
      .cls-1 {
        fill: #fff;
      }
    </style>
  </defs>
  <g id="Layer_1-2" data-name="Layer 1">
    <g>
      <path class="cls-1" d="m94.5,54.43h72.19s113.31,278.5,74.31,443.5l-54.25-82.5s8.62-140.69-92.25-361Z"/>
      <polygon class="cls-1" points="94.5 54.43 23.5 377.43 75.5 377.43 147.69 54.43 94.5 54.43"/>
      <polygon class="cls-1" points="90 270.93 195.79 270.93 195.79 241.32 86 240.93 90 270.93"/>
      <g>
        <path class="cls-1" d="m95.56,48.43h69.19s3.52-36.14,10.23-45.67c.06-.09-.05-.2-.13-.13-3.76,3.08-9.48,7.43-27.72,28.18l-9.43-16.98h-15.1l-9.43,16.98s-15.04-19.37-27.24-28.42c-.21-.16-.5.06-.41.31,1.91,5.36,10.04,35.66,10.04,45.72Z"/>
        <circle class="cls-1" cx="130.15" cy="5.03" r="5.03"/>
      </g>
    </g>
  </g>
</svg>